# Blender 3.4.1
# www.blender.org
mtllib banquise8.mtl
o Cube.003
v -7.455182 3.728824 -0.927206
v -6.837822 3.728824 0.975125
v -13.162178 3.728824 0.924875
v -12.544817 3.728824 2.827207
v -7.455182 -3.728824 -0.927206
v -6.837822 -3.728824 0.975125
v -13.162178 -3.728824 0.924875
v -12.544817 -3.728824 2.827207
v 40.000000 -40.000000 -1.000000
v 40.000000 -40.000000 1.000000
v -40.000000 -40.000000 -1.000000
v -40.000000 -40.000000 1.000000
v 40.000000 40.000000 -1.000000
v 40.000000 40.000000 1.000000
v -40.000000 40.000000 -1.000000
v -40.000000 40.000000 1.000000
v -25.780357 -3.923141 -1.000000
v -26.530731 -3.695518 -1.000000
v -27.222279 -3.325878 -1.000000
v -27.828424 -2.828427 -1.000000
v -21.000000 0.000000 -1.000000
v -28.999996 0.000000 -1.000000
v -28.325874 2.222281 -1.000000
v -27.828424 2.828427 -1.000000
v -27.222279 3.325878 -1.000000
v -25.780357 3.923141 -1.000000
v -24.999998 4.000000 -1.000000
v -24.219637 3.923141 -1.000000
v -23.469265 3.695518 -1.000000
v -21.674120 2.222281 -1.000000
v -21.304478 1.530734 -1.000000
v -21.076855 0.780361 -1.000000
v -24.999998 -4.000000 -1.000000
v -28.325874 -2.222281 -1.000000
v -21.076855 -0.780361 -1.000000
v -28.923140 -0.780361 -1.000000
v -28.695517 -1.530734 -1.000000
v -28.923140 0.780361 -1.000000
v -28.695517 1.530734 -1.000000
v -22.777718 3.325878 -1.000000
v -26.530731 3.695518 -1.000000
v -22.171572 2.828427 -1.000000
v -21.304478 -1.530734 1.000000
v -21.076855 -0.780361 1.000000
v -21.304478 1.530734 1.000000
v -27.222279 3.325878 1.000000
v -27.222279 -3.325878 1.000000
v -25.780357 3.923141 1.000000
v -24.999998 -4.000000 1.000000
v -24.219637 -3.923141 1.000000
v -23.469265 -3.695518 1.000000
v -28.325874 -2.222281 1.000000
v -28.695517 -1.530734 1.000000
v -21.000000 0.000000 1.000000
v -28.923140 0.780361 1.000000
v -28.325874 2.222281 1.000000
v -24.219637 3.923141 1.000000
v -23.469265 3.695518 1.000000
v -28.999996 0.000000 1.000000
v -21.304478 -1.530734 -1.000000
v -21.674120 -2.222281 -1.000000
v -22.171572 -2.828427 -1.000000
v -22.777718 -3.325878 -1.000000
v -23.469265 -3.695518 -1.000000
v -24.219637 -3.923141 -1.000000
v -22.777718 -3.325878 1.000000
v -22.171572 -2.828427 1.000000
v -21.674120 -2.222281 1.000000
v -21.076855 0.780361 1.000000
v -21.674120 2.222281 1.000000
v -22.171572 2.828427 1.000000
v -22.777718 3.325878 1.000000
v -24.999998 4.000000 1.000000
v -26.530731 3.695518 1.000000
v -27.828424 2.828427 1.000000
v -28.695517 1.530734 1.000000
v -28.923140 -0.780361 1.000000
v -27.828424 -2.828427 1.000000
v -26.530731 -3.695518 1.000000
v -25.780357 -3.923141 1.000000
vn -0.0000 1.0000 -0.0000
vn -0.9512 -0.0000 0.3087
vn -0.0000 -1.0000 -0.0000
vn 0.9512 -0.0000 -0.3087
vn -0.3087 -0.0000 -0.9512
vn 0.3087 -0.0000 0.9512
vn -1.0000 -0.0000 -0.0000
vn 1.0000 -0.0000 -0.0000
vn -0.0000 -0.0000 -1.0000
vn -0.0000 -0.0000 1.0000
vn -0.2903 0.9569 -0.0000
vn -0.0980 0.9952 -0.0000
vn 0.0980 0.9952 -0.0000
vn 0.2903 0.9569 -0.0000
vn 0.4714 0.8819 -0.0000
vn 0.6344 0.7730 -0.0000
vn 0.7730 0.6344 -0.0000
vn 0.8819 0.4714 -0.0000
vn 0.9569 0.2903 -0.0000
vn 0.9952 0.0980 -0.0000
vn 0.9952 -0.0980 -0.0000
vn 0.9569 -0.2903 -0.0000
vn 0.8819 -0.4714 -0.0000
vn 0.7730 -0.6344 -0.0000
vn 0.6344 -0.7730 -0.0000
vn 0.4714 -0.8819 -0.0000
vn 0.2903 -0.9569 -0.0000
vn 0.0980 -0.9952 -0.0000
vn -0.0980 -0.9952 -0.0000
vn -0.2903 -0.9569 -0.0000
vn -0.4714 -0.8819 -0.0000
vn -0.6344 -0.7730 -0.0000
vn -0.7730 -0.6344 -0.0000
vn -0.8819 -0.4714 -0.0000
vn -0.9569 -0.2903 -0.0000
vn -0.9952 -0.0980 -0.0000
vn -0.9952 0.0980 -0.0000
vn -0.9569 0.2903 -0.0000
vn -0.8819 0.4714 -0.0000
vn -0.7730 0.6344 -0.0000
vn -0.6344 0.7730 -0.0000
vn -0.4714 0.8819 -0.0000
vt 0.991962 0.247569
vt 0.986153 0.262192
vt 0.604502 -0.132023
vt 0.993422 0.631542
vt 0.987613 0.646165
vt 0.608883 1.019897
vt 0.988476 -0.133483
vt 0.607989 0.249030
vt 0.609449 0.633003
vt 0.609449 0.469808
vt 0.992856 1.018436
vt 0.605963 0.251950
vt 0.607423 0.635923
vt 0.989936 0.250490
vt 0.991396 0.471268
vt 0.991396 0.634463
vt 0.003430 0.351134
vt -0.002147 0.388917
vt -0.000310 0.978885
vt 0.598350 0.351134
vt 0.592773 0.388917
vt 0.596513 0.978885
vt 0.003430 0.946054
vt -0.000310 0.383965
vt 0.598350 0.946054
vt 0.596513 0.383965
vt 0.594610 0.978885
vt 0.001593 0.978885
vt 0.594610 0.383965
vt 0.001593 0.383965
vt 0.267975 0.489710
vt 0.194110 0.407149
vt 0.269668 0.484129
vt 0.187014 0.410556
vt 0.272417 0.478987
vt 0.180344 0.417390
vt 0.276116 0.474479
vt 0.174362 0.427378
vt 0.297150 0.525259
vt 0.234350 0.510352
vt 0.297150 0.465767
vt 0.161441 0.489598
vt 0.313676 0.470780
vt 0.165700 0.543068
vt 0.318184 0.474479
vt 0.169663 0.558460
vt 0.321883 0.478987
vt 0.174725 0.571588
vt 0.326324 0.489710
vt 0.187339 0.589172
vt 0.326896 0.495513
vt 0.194401 0.592959
vt 0.326324 0.501316
vt 0.201604 0.593175
vt 0.324632 0.506896
vt 0.208666 0.589818
vt 0.313676 0.520245
vt 0.226317 0.560284
vt 0.308533 0.522994
vt 0.230247 0.545197
vt 0.302953 0.524687
vt 0.232898 0.528357
vt 0.267404 0.495513
vt 0.201353 0.407311
vt 0.280624 0.470780
vt 0.169302 0.440127
vt 0.291347 0.524687
vt 0.234390 0.491991
vt 0.291347 0.466338
vt 0.162710 0.471809
vt 0.285767 0.468031
vt 0.165366 0.455116
vt 0.302953 0.466338
vt 0.161617 0.507847
vt 0.308533 0.468031
vt 0.162985 0.525989
vt 0.321883 0.512039
vt 0.215308 0.583022
vt 0.324632 0.484129
vt 0.180694 0.581957
vt 0.318183 0.516546
vt 0.221270 0.573050
vt 0.310436 0.522994
vt 0.256560 0.455434
vt 0.304856 0.524687
vt 0.258900 0.485151
vt 0.287670 0.522994
vt 0.252077 0.572790
vt 0.274320 0.478987
vt 0.159210 0.619225
vt 0.323786 0.478987
vt 0.168414 0.364037
vt 0.269879 0.489710
vt 0.180354 0.647910
vt 0.328799 0.495513
vt 0.203486 0.346083
vt 0.328227 0.501316
vt 0.215382 0.351970
vt 0.326535 0.506896
vt 0.226592 0.363609
vt 0.315579 0.470780
vt 0.150091 0.402628
vt 0.310436 0.468031
vt 0.143588 0.427850
vt 0.299053 0.525259
vt 0.258900 0.515373
vt 0.293250 0.466338
vt 0.137154 0.515138
vt 0.282527 0.470780
vt 0.144086 0.572495
vt 0.269879 0.501316
vt 0.204258 0.653917
vt 0.271572 0.506896
vt 0.216073 0.647964
vt 0.299053 0.465767
vt 0.137040 0.485178
vt 0.285767 0.522994
vt 0.233015 0.473964
vt 0.280624 0.520246
vt 0.230277 0.456955
vt 0.276116 0.516546
vt 0.226277 0.441615
vt 0.272417 0.512039
vt 0.221171 0.428531
vt 0.269668 0.506896
vt 0.215154 0.418209
vt 0.267975 0.501316
vt 0.208461 0.411044
vt 0.323786 0.512039
vt 0.236676 0.380535
vt 0.320087 0.516546
vt 0.245239 0.402075
vt 0.315579 0.520245
vt 0.251951 0.427375
vt 0.293250 0.524687
vt 0.256586 0.544949
vt 0.282527 0.520246
vt 0.245513 0.597925
vt 0.278019 0.516546
vt 0.237108 0.619379
vt 0.274320 0.512039
vt 0.227168 0.636290
vt 0.269307 0.495513
vt 0.192192 0.653900
vt 0.271571 0.484129
vt 0.169214 0.636192
vt 0.278019 0.474479
vt 0.150728 0.597702
vt 0.287670 0.468031
vt 0.139516 0.544611
vt 0.304856 0.466338
vt 0.139194 0.455725
vt 0.320086 0.474479
vt 0.158472 0.381064
vt 0.326534 0.484129
vt 0.179527 0.352247
vt 0.328227 0.489710
vt 0.191375 0.346178
s 0
usemtl Material
f 1/1/1 4/9/1 2/4/1
f 7/14/2 4/10/2 3/8/2
f 5/12/3 8/16/3 7/14/3
f 1/2/4 6/13/4 5/12/4
f 1/3/5 7/14/5 3/7/5
f 6/13/6 4/11/6 8/16/6
f 10/20/3 11/23/3 9/17/3
f 12/25/7 15/29/7 11/23/7
f 16/30/1 13/27/1 15/29/1
f 14/28/8 9/18/8 13/27/8
f 11/24/9 15/29/9 22/41/9
f 9/19/9 21/39/9 32/61/9
f 14/28/10 54/105/10 44/85/10
f 16/30/10 12/26/10 59/115/10
f 51/100/11 65/128/11 50/98/11
f 49/96/12 65/128/12 33/64/12
f 80/158/13 33/64/13 17/32/13
f 79/156/14 17/32/14 18/34/14
f 79/156/15 19/36/15 47/92/15
f 47/92/16 20/38/16 78/154/16
f 78/154/17 34/66/17 52/102/17
f 52/102/18 37/72/18 53/104/18
f 53/104/19 36/70/19 77/152/19
f 77/152/20 22/42/20 59/116/20
f 59/116/21 38/74/21 55/108/21
f 55/108/22 39/76/22 76/150/22
f 76/150/23 23/44/23 56/110/23
f 56/110/24 24/46/24 75/148/24
f 75/148/25 25/48/25 46/90/25
f 46/90/26 41/80/26 74/146/26
f 74/146/27 26/50/27 48/94/27
f 48/94/28 27/52/28 73/144/28
f 57/112/29 27/52/29 28/54/29
f 57/112/30 29/56/30 58/114/30
f 58/114/31 40/78/31 72/142/31
f 72/142/32 42/82/32 71/140/32
f 71/140/33 30/58/33 70/138/33
f 70/138/34 31/60/34 45/88/34
f 45/88/35 32/62/35 69/136/35
f 69/136/36 21/40/36 54/106/36
f 54/106/37 35/68/37 44/86/37
f 44/86/38 60/118/38 43/84/38
f 43/84/39 61/120/39 68/134/39
f 68/134/40 62/122/40 67/132/40
f 67/132/41 63/124/41 66/130/41
f 66/130/42 64/126/42 51/100/42
f 1/1/1 3/8/1 4/9/1
f 7/14/2 8/15/2 4/10/2
f 5/12/3 6/13/3 8/16/3
f 1/2/4 2/5/4 6/13/4
f 1/3/5 5/12/5 7/14/5
f 6/13/6 2/6/6 4/11/6
f 10/20/3 12/25/3 11/23/3
f 12/25/7 16/30/7 15/29/7
f 16/30/1 14/28/1 13/27/1
f 14/28/8 10/21/8 9/18/8
f 19/35/9 18/33/9 11/24/9
f 15/29/9 41/79/9 25/47/9
f 15/29/9 25/47/9 24/45/9
f 20/37/9 19/35/9 11/24/9
f 34/65/9 20/37/9 11/24/9
f 15/29/9 24/45/9 23/43/9
f 15/29/9 23/43/9 39/75/9
f 37/71/9 34/65/9 11/24/9
f 36/69/9 37/71/9 11/24/9
f 15/29/9 39/75/9 38/73/9
f 22/41/9 36/69/9 11/24/9
f 15/29/9 38/73/9 22/41/9
f 26/49/9 41/79/9 15/29/9
f 15/29/9 13/27/9 9/19/9
f 9/19/9 11/24/9 18/33/9
f 9/19/9 18/33/9 17/31/9
f 27/51/9 26/49/9 15/29/9
f 28/53/9 27/51/9 15/29/9
f 9/19/9 17/31/9 33/63/9
f 9/19/9 33/63/9 65/127/9
f 29/55/9 28/53/9 15/29/9
f 40/77/9 29/55/9 15/29/9
f 9/19/9 65/127/9 64/125/9
f 9/19/9 64/125/9 63/123/9
f 40/77/9 15/29/9 9/19/9
f 42/81/9 40/77/9 9/19/9
f 9/19/9 63/123/9 62/121/9
f 9/19/9 62/121/9 61/119/9
f 30/57/9 42/81/9 9/19/9
f 31/59/9 30/57/9 9/19/9
f 9/19/9 61/119/9 60/117/9
f 9/19/9 60/117/9 35/67/9
f 32/61/9 31/59/9 9/19/9
f 9/19/9 35/67/9 21/39/9
f 80/157/10 79/155/10 12/26/10
f 12/26/10 10/22/10 14/28/10
f 14/28/10 16/30/10 74/145/10
f 14/28/10 74/145/10 48/93/10
f 49/95/10 80/157/10 12/26/10
f 50/97/10 49/95/10 12/26/10
f 14/28/10 48/93/10 73/143/10
f 14/28/10 73/143/10 57/111/10
f 51/99/10 50/97/10 12/26/10
f 66/129/10 51/99/10 12/26/10
f 14/28/10 57/111/10 58/113/10
f 14/28/10 58/113/10 72/141/10
f 66/129/10 12/26/10 14/28/10
f 67/131/10 66/129/10 14/28/10
f 14/28/10 72/141/10 71/139/10
f 14/28/10 71/139/10 70/137/10
f 68/133/10 67/131/10 14/28/10
f 43/83/10 68/133/10 14/28/10
f 14/28/10 70/137/10 45/87/10
f 14/28/10 45/87/10 69/135/10
f 44/85/10 43/83/10 14/28/10
f 14/28/10 69/135/10 54/105/10
f 46/89/10 74/145/10 16/30/10
f 12/26/10 79/155/10 47/91/10
f 12/26/10 47/91/10 78/153/10
f 75/147/10 46/89/10 16/30/10
f 56/109/10 75/147/10 16/30/10
f 12/26/10 78/153/10 52/101/10
f 12/26/10 52/101/10 53/103/10
f 76/149/10 56/109/10 16/30/10
f 55/107/10 76/149/10 16/30/10
f 12/26/10 53/103/10 77/151/10
f 59/115/10 55/107/10 16/30/10
f 12/26/10 77/151/10 59/115/10
f 51/100/11 64/126/11 65/128/11
f 49/96/12 50/98/12 65/128/12
f 80/158/13 49/96/13 33/64/13
f 79/156/14 80/158/14 17/32/14
f 79/156/15 18/34/15 19/36/15
f 47/92/16 19/36/16 20/38/16
f 78/154/17 20/38/17 34/66/17
f 52/102/18 34/66/18 37/72/18
f 53/104/19 37/72/19 36/70/19
f 77/152/20 36/70/20 22/42/20
f 59/116/21 22/42/21 38/74/21
f 55/108/22 38/74/22 39/76/22
f 76/150/23 39/76/23 23/44/23
f 56/110/24 23/44/24 24/46/24
f 75/148/25 24/46/25 25/48/25
f 46/90/26 25/48/26 41/80/26
f 74/146/27 41/80/27 26/50/27
f 48/94/28 26/50/28 27/52/28
f 57/112/29 73/144/29 27/52/29
f 57/112/30 28/54/30 29/56/30
f 58/114/31 29/56/31 40/78/31
f 72/142/32 40/78/32 42/82/32
f 71/140/33 42/82/33 30/58/33
f 70/138/34 30/58/34 31/60/34
f 45/88/35 31/60/35 32/62/35
f 69/136/36 32/62/36 21/40/36
f 54/106/37 21/40/37 35/68/37
f 44/86/38 35/68/38 60/118/38
f 43/84/39 60/118/39 61/120/39
f 68/134/40 61/120/40 62/122/40
f 67/132/41 62/122/41 63/124/41
f 66/130/42 63/124/42 64/126/42
